<svg width="24" height="17" viewBox="0 0 24 17" fill="none" xmlns="http://www.w3.org/2000/svg">
<path d="M17.1067 0.112627C17.0509 0.17926 16.7807 0.499819 16.5052 0.827581C14.5404 3.15794 12.5847 5.53872 10.049 8.68849C8.70553 10.3561 8.2445 10.9252 7.75826 11.5123C6.96226 12.4704 6.56246 12.8846 6.4292 12.8846C6.37337 12.8846 6.24551 12.7567 6.07802 12.5334C5.78268 12.1408 5.41169 11.5303 4.50224 9.94011C3.6234 8.40215 3.32265 7.9087 3.14797 7.7088L3.08493 7.63677L2.91925 7.698C2.34477 7.9051 1.67303 8.32651 1.0085 8.8974C0.671734 9.18734 0 9.86808 0 9.9185C0 9.99054 1.03912 11.3952 2.15927 12.8396C3.52976 14.6062 4.65351 15.9659 5.16677 16.4846C5.39008 16.7097 5.66382 16.8628 6.01139 16.9582C6.20048 17.0104 6.6363 17.014 6.86141 16.9672C7.0451 16.9276 7.4359 16.7997 7.60338 16.7223C7.74205 16.6593 7.77267 16.6232 8.28412 15.9731C9.18097 14.8259 9.61678 14.2839 10.2651 13.5059C13.5932 9.5079 17.4075 5.72242 21.5063 2.35294C21.8863 2.04138 22.8083 1.30122 22.9488 1.19677C22.9938 1.16255 23.0335 1.12833 23.0335 1.11933C23.0335 1.11212 23.0064 1.10672 22.974 1.10672C22.875 1.10672 22.3563 1.0707 22.043 1.04189C20.188 0.874405 18.5546 0.521431 17.2346 0.00097084C17.2166 -0.00623322 17.1751 0.0297852 17.1067 0.112627Z" fill="white"/>
</svg>
