<svg width="0" height="0" class="hidden">
  <symbol id="facebook" enable-background="new 0 0 24 24" xmlns="http://www.w3.org/2000/svg" viewBox="0 0 24 24" class="social-fb">
    <path d="m15.997 3.985h2.191v-3.816c-.378-.052-1.678-.169-3.192-.169-3.159 0-5.323 1.987-5.323 5.639v3.361h-3.486v4.266h3.486v10.734h4.274v-10.733h3.345l.531-4.266h-3.877v-2.939c.001-1.233.333-2.077 2.051-2.077z"></path>
  </symbol>
  <symbol id="vk" enable-background="new 0 0 24 24" xmlns="http://www.w3.org/2000/svg" viewBox="0 0 24 24" class="social-vk">
    <path d="m19.915 13.028c-.388-.49-.277-.708 0-1.146.005-.005 3.208-4.431 3.538-5.932l.002-.001c.164-.547 0-.949-.793-.949h-2.624c-.668 0-.976.345-1.141.731 0 0-1.336 3.198-3.226 5.271-.61.599-.892.791-1.225.791-.164 0-.419-.192-.419-.739v-5.105c0-.656-.187-.949-.74-.949h-4.126c-.419 0-.668.306-.668.591 0 .622.945.765 1.043 2.515v3.797c0 .832-.151.985-.486.985-.892 0-3.057-3.211-4.34-6.886-.259-.713-.512-1.001-1.185-1.001h-2.625c-.749 0-.9.345-.9.731 0 .682.892 4.073 4.148 8.553 2.17 3.058 5.226 4.715 8.006 4.715 1.671 0 1.875-.368 1.875-1.001 0-2.922-.151-3.198.686-3.198.388 0 1.056.192 2.616 1.667 1.783 1.749 2.076 2.532 3.074 2.532h2.624c.748 0 1.127-.368.909-1.094-.499-1.527-3.871-4.668-4.023-4.878z"></path>
  </symbol>
  <symbol xmlns="http://www.w3.org/2000/svg" viewBox="0 0 35 36" id="mail" class="contacts__icon-mail">
    <path d="M34.993 13.896C34.9893 13.8556 34.9813 13.8157 34.969 13.7771C34.961 13.7425 34.9499 13.7088 34.9358 13.6763C34.9195 13.6445 34.8999 13.6144 34.8775 13.5866C34.855 13.5536 34.829 13.5232 34.7999 13.4958C34.7905 13.4876 34.7865 13.4764 34.7766 13.4682L29.1664 9.09215V4.5567C29.1664 3.58598 28.3828 2.79899 27.4163 2.79899H21.0944L18.5631 0.825071C17.9378 0.335247 17.0609 0.335247 16.4356 0.825071L13.9038 2.79899H7.58185C6.61534 2.79899 5.83176 3.58591 5.83176 4.5567V9.09222L0.223341 13.4683C0.213429 13.4765 0.209327 13.4877 0.20003 13.4958C0.170975 13.5232 0.144929 13.5536 0.122438 13.5867C0.100015 13.6145 0.0804631 13.6445 0.0641244 13.6763C0.0499732 13.7088 0.0388985 13.7426 0.0309 13.7771C0.0187314 13.8152 0.010733 13.8545 0.00697301 13.8943C0.00697301 13.9066 0 13.9172 0 13.9295V33.8518C0.000820354 34.2245 0.120866 34.5871 0.34243 34.8859C0.345916 34.8912 0.346531 34.8977 0.350565 34.9023C0.354666 34.907 0.363417 34.9123 0.369228 34.9188C0.696959 35.3519 1.20667 35.6072 1.74831 35.6095H33.2499C33.7937 35.6079 34.3055 35.3513 34.6336 34.9159C34.6383 34.91 34.6453 34.9082 34.6494 34.9024C34.6535 34.8966 34.654 34.8913 34.6576 34.886C34.8791 34.5871 34.9992 34.2245 35 33.8519V13.9311C34.9999 13.9188 34.9936 13.9083 34.993 13.896ZM17.149 1.74959C17.3527 1.587 17.6412 1.587 17.845 1.74959L19.1908 2.79893H15.8073L17.149 1.74959ZM1.89529 34.4378L17.1491 22.5375C17.353 22.3752 17.6412 22.3752 17.845 22.5375L33.1029 34.4378H1.89529ZM33.8333 33.5243L18.5631 21.6129C17.9377 21.1235 17.061 21.1235 16.4356 21.6129L1.1649 33.5243V14.8235L10.7245 22.2791C10.9792 22.4775 11.3458 22.4309 11.5433 22.1751C11.7408 21.9192 11.6944 21.5511 11.4397 21.3527L1.72787 13.7788L5.83183 10.5756V15.1029C5.83183 15.4265 6.09304 15.6888 6.41517 15.6888C6.73736 15.6888 6.99851 15.4264 6.99851 15.1029V4.55664C6.99851 4.23304 7.25966 3.97075 7.58185 3.97075H27.4162C27.7384 3.97075 27.9995 4.23304 27.9995 4.55664V15.1029C27.9995 15.4265 28.2607 15.6888 28.5828 15.6888C28.905 15.6888 29.1662 15.4264 29.1662 15.1029V10.5756L33.2701 13.7788L23.5414 21.3663C23.3741 21.4936 23.2877 21.7015 23.3155 21.9106C23.3432 22.1197 23.4807 22.2976 23.6755 22.3765C23.8703 22.4554 24.0922 22.4231 24.2566 22.2919L33.8331 14.8235V33.5243H33.8333Z" ></path>
    <path d="M24.4995 14.517V12.1734C24.4995 8.29039 21.3653 5.14258 17.4991 5.14258C13.6329 5.14258 10.4988 8.29039 10.4988 12.1734C10.4988 16.0564 13.6329 19.2043 17.4991 19.2043C17.8213 19.2043 18.0825 18.942 18.0825 18.6184C18.0825 18.2948 17.8213 18.0325 17.4991 18.0325C14.2773 18.0325 11.6655 15.4093 11.6655 12.1735C11.6655 8.93765 14.2773 6.31448 17.4991 6.31448C20.7209 6.31448 23.3327 8.93765 23.3327 12.1735V14.5171C23.3327 15.1643 22.8104 15.6889 22.166 15.6889C21.5216 15.6889 20.9992 15.1643 20.9992 14.5171V12.1735C20.9992 11.8499 20.7381 11.5876 20.4159 11.5876C20.0937 11.5876 19.8326 11.8499 19.8326 12.1735C19.8326 13.4678 18.7878 14.5171 17.4991 14.5171C16.2104 14.5171 15.1657 13.4678 15.1657 12.1735C15.1657 10.8792 16.2104 9.8299 17.4991 9.8299C17.8213 9.8299 18.0825 9.56761 18.0825 9.24402C18.0825 8.92042 17.8213 8.65814 17.4991 8.65814C15.9326 8.65464 14.5545 9.69697 14.1252 11.2101C13.6958 12.7233 14.3198 14.3386 15.6529 15.165C16.9859 15.9914 18.7033 15.8276 19.8577 14.7638C19.9847 16.0029 21.0569 16.9242 22.2954 16.8583C23.5339 16.7924 24.5034 15.7627 24.4995 14.517Z"></path>
  </symbol>
  <symbol xmlns="http://www.w3.org/2000/svg" viewBox="0 0 30 31" id="modal-icon">
    <rect x="0.067627" y="26.939" width="38.0975" height="4.23305" rx="2" transform="rotate(-45 0.067627 26.939)" ></rect>
    <rect x="2.99316" y="0.127197" width="38.0975" height="4.23305" rx="2" transform="rotate(45 2.99316 0.127197)" ></rect>
  </symbol>
  <symbol xmlns="http://www.w3.org/2000/svg" viewBox="0 0 35 36" id="map" class="contacts__icon-map">
    <path d="M11.4826 24.948C12.924 27.0236 14.3631 28.8799 15.3169 30.0756C15.4557 30.2495 15.5858 30.4109 15.7118 30.5664H12.8336C12.5115 30.5664 12.2503 30.8331 12.2503 31.1621C12.2503 31.4912 12.5115 31.7579 12.8336 31.7579H22.1669C22.4891 31.7579 22.7502 31.4912 22.7502 31.1621C22.7502 30.8331 22.4891 30.5664 22.1669 30.5664H19.2888C19.4148 30.4109 19.5449 30.2495 19.6843 30.0756C20.6374 28.884 22.076 27.0236 23.518 24.948C24.9487 22.93 26.2364 20.8103 27.3715 18.6051C28.5626 16.2162 29.167 14.233 29.167 12.7103C29.171 9.54624 27.9416 6.51073 25.7504 4.2739C25.604 4.11891 25.3872 4.05664 25.1832 4.11102C24.9792 4.16541 24.8198 4.32793 24.7663 4.53619C24.7128 4.74444 24.7734 4.96596 24.925 5.11564C26.8973 7.12935 28.0038 9.86194 28.0003 12.7102C28.0003 14.0435 27.4392 15.845 26.332 18.0642C25.2226 20.2183 23.964 22.2888 22.566 24.2599C21.1439 26.3087 19.7222 28.1442 18.7802 29.3237C18.467 29.7157 18.1852 30.0624 17.9448 30.3556C17.8326 30.4864 17.6706 30.5614 17.5004 30.5614C17.3301 30.5614 17.1681 30.4863 17.0559 30.3556C16.8155 30.0625 16.5338 29.7157 16.2205 29.3237C15.2785 28.1448 13.8569 26.3092 12.4347 24.2599C11.0367 22.2888 9.77811 20.2183 8.6687 18.0642C7.56039 15.845 7.00039 14.0435 7.00039 12.7102C7.00004 8.39508 9.52689 4.49821 13.4171 2.8143C16.031 1.69491 18.9757 1.69491 21.5896 2.8143C21.7816 2.89738 22.0023 2.86966 22.1688 2.74142C22.3352 2.61324 22.422 2.40407 22.3965 2.19275C22.371 1.98142 22.2371 1.80005 22.0452 1.71697C16.1049 -0.841849 9.2581 2.00055 6.75074 8.0664C6.14268 9.5357 5.83082 11.1151 5.83376 12.7102C5.83376 14.2329 6.43813 16.2162 7.62929 18.6081C8.7642 20.8123 10.052 22.931 11.4826 24.948Z" ></path>
    <path d="M17.5003 7.33246C17.8225 7.33246 18.0836 7.06578 18.0836 6.73674C18.0836 6.40771 17.8225 6.14102 17.5003 6.14102C14.7174 6.14095 12.3219 8.14866 11.7789 10.9362C11.236 13.7237 12.6967 16.5147 15.2678 17.6024C17.8389 18.6901 20.8043 17.7714 22.3504 15.4083C23.8966 13.0452 23.5929 9.89568 21.6251 7.88595C21.4786 7.7311 21.2617 7.66897 21.0577 7.72349C20.8538 7.77802 20.6945 7.94068 20.6412 8.14894C20.5878 8.35726 20.6486 8.57871 20.8002 8.72832C22.3745 10.3361 22.6176 12.8556 21.3807 14.7461C20.1439 16.6367 17.7716 17.3717 15.7147 16.5017C13.6579 15.6317 12.4892 13.3989 12.9234 11.1688C13.3576 8.93874 15.274 7.33253 17.5003 7.33246Z" ></path>
    <path d="M34.7804 33.2897L31.1929 26.7365C30.8685 26.1542 30.2615 25.7964 29.6056 25.8005H25.4482C25.126 25.8005 24.8649 26.0672 24.8649 26.3963C24.8649 26.7253 25.126 26.992 25.4482 26.992H29.6056C29.8392 26.9874 30.057 27.1117 30.1756 27.3173L33.7619 33.8705C33.8596 34.041 33.8575 34.2524 33.7566 34.4209C33.6375 34.622 33.422 34.7424 33.192 34.7367H1.80857C1.57874 34.7423 1.36355 34.6218 1.24446 34.4209C1.14356 34.2524 1.14158 34.041 1.2392 33.8705L4.82555 27.3173C4.94388 27.1118 5.16154 26.9875 5.39485 26.992H9.55228C9.87445 26.992 10.1356 26.7253 10.1356 26.3963C10.1356 26.0672 9.87445 25.8005 9.55228 25.8005H5.39492C4.73866 25.7961 4.13122 26.154 3.80651 26.7365L0.219548 33.2897C-0.0795256 33.8292 -0.0726212 34.491 0.237663 35.0239C0.564559 35.5914 1.164 35.9365 1.80857 35.9283H33.192C33.8363 35.9363 34.4356 35.5912 34.7623 35.0239C35.0726 34.491 35.0795 33.8292 34.7804 33.2897Z"></path>
    <path d="M28.5835 28.7793H26.2502C26.135 28.7795 26.0224 28.8143 25.9265 28.8794L24.1765 30.0709C23.9084 30.2536 23.8361 30.6235 24.0149 30.8972C24.1937 31.171 24.5559 31.2448 24.824 31.0623L26.4252 29.9709H28.5835C28.9057 29.9709 29.1668 29.7041 29.1668 29.3752C29.1668 29.046 28.9057 28.7793 28.5835 28.7793Z" ></path>
    <path d="M25.0835 32.9495C25.0835 33.2785 25.3446 33.5452 25.6668 33.5452H30.3335C30.6557 33.5452 30.9168 33.2785 30.9168 32.9495C30.9168 32.6204 30.6557 32.3537 30.3335 32.3537H25.6668C25.3446 32.3537 25.0835 32.6204 25.0835 32.9495Z" ></path>
    <path d="M10.5004 31.1623C10.7575 31.1626 10.9846 30.9909 11.0593 30.7395C11.134 30.4882 11.0387 30.2166 10.8247 30.0709L9.07474 28.8793C8.97862 28.8141 8.86576 28.7793 8.75037 28.7792H6.41705C6.09487 28.7792 5.83374 29.046 5.83374 29.375C5.83374 29.704 6.09494 29.9707 6.41705 29.9707H8.57537L10.1784 31.0621C10.2738 31.1271 10.3858 31.162 10.5004 31.1623Z" ></path>
    <path d="M4.66681 32.3537C4.34463 32.3537 4.0835 32.6204 4.0835 32.9495C4.0835 33.2785 4.34463 33.5452 4.66681 33.5452H9.33351C9.65569 33.5452 9.91683 33.2785 9.91683 32.9495C9.91683 32.6204 9.65569 32.3537 9.33351 32.3537H4.66681Z" ></path>
  </symbol>
  <symbol  xmlns="http://www.w3.org/2000/svg" viewBox="0 0 35 36" id="phone" class="contacts__icon-phone">
    <path d="M34.0816 27.2464L32.7221 26.3366C35.7881 20.9201 35.7539 14.2743 32.6322 8.89C29.5105 3.50567 23.7727 0.195756 17.5693 0.200905C17.2472 0.200905 16.9861 0.46315 16.9861 0.786699C16.9861 1.11025 17.2472 1.37249 17.5693 1.37249C23.3419 1.36817 28.6834 4.44049 31.6013 9.44346C34.519 14.4464 34.5749 20.6286 31.7481 25.684L26.9952 22.5012C26.0961 21.9042 24.8913 22.1007 24.2265 22.9529L22.1653 25.6177C21.8999 25.9687 21.4181 26.0706 21.0344 25.8568L20.6419 25.6394C19.3406 24.927 17.7216 24.0401 14.4595 20.7625C11.1974 17.4848 10.3126 15.8574 9.60332 14.5528L9.38809 14.1586C9.17204 13.7733 9.27156 13.2871 9.62137 13.0186L12.2728 10.9466C13.1211 10.2789 13.3171 9.0689 12.7231 8.16567L7.99876 1.05032C7.3899 0.130606 6.1685 -0.145506 5.22603 0.423538L2.26371 2.21085C1.33293 2.76047 0.650048 3.65059 0.358265 4.6947C-0.708462 8.59858 0.0940261 15.3361 9.97542 25.2622C14.2798 29.5855 17.9805 32.1748 21.1096 33.6394C16.2934 34.7324 11.2438 33.5625 7.39093 30.4611C3.53801 27.3597 1.30128 22.6645 1.3142 17.7052C1.3142 17.3817 1.0531 17.1194 0.730974 17.1194C0.408843 17.1194 0.147749 17.3817 0.147749 17.7052C0.156771 27.3665 7.95044 35.1972 17.5694 35.2094C19.3714 35.2101 21.1624 34.9266 22.8769 34.3694C24.4237 34.9497 26.0586 35.2576 27.7097 35.2797C28.6353 35.2837 29.5573 35.1628 30.4509 34.9201C31.4907 34.6274 32.377 33.9414 32.9239 33.0062L34.7051 30.0326C35.2725 29.0858 34.9977 27.8582 34.0816 27.2464ZM33.7025 29.4297L31.9253 32.4051C31.5324 33.0812 30.894 33.5782 30.1441 33.7917C28.4474 34.2604 26.1494 34.3189 23.1964 33.2498C23.1496 33.2235 23.0993 33.2038 23.0471 33.1913C19.7809 31.9733 15.7256 29.3776 10.7989 24.431C1.31536 14.9061 0.498244 8.60915 1.48336 5.00466C1.69634 4.2517 2.19105 3.61057 2.86388 3.21555L5.82621 1.43057C6.23514 1.18343 6.76526 1.30323 7.02943 1.70236L9.59574 5.57226L11.7497 8.81709C12.0076 9.20888 11.9229 9.73399 11.5549 10.0239L8.90288 12.0959C8.09581 12.7158 7.86534 13.8373 8.36224 14.7274L8.57282 15.1117C9.31824 16.4849 10.245 18.1931 13.6284 21.5909C17.0118 24.9886 18.712 25.9195 20.0785 26.6682L20.4617 26.8802C21.3478 27.3792 22.4645 27.1478 23.0817 26.3372L25.1446 23.6735C25.4333 23.3041 25.9559 23.219 26.3461 23.4778L33.4296 28.2229C33.8271 28.4873 33.9473 29.0188 33.7025 29.4297Z" ></path>
  </symbol>
</svg>