<svg width="35" height="36" viewBox="0 0 35 36" fill="none" xmlns="http://www.w3.org/2000/svg">
<path d="M34.993 13.896C34.9893 13.8556 34.9813 13.8157 34.969 13.7771C34.961 13.7425 34.9499 13.7088 34.9358 13.6763C34.9195 13.6445 34.8999 13.6144 34.8775 13.5866C34.855 13.5536 34.829 13.5232 34.7999 13.4958C34.7905 13.4876 34.7865 13.4764 34.7766 13.4682L29.1664 9.09215V4.5567C29.1664 3.58598 28.3828 2.79899 27.4163 2.79899H21.0944L18.5631 0.825071C17.9378 0.335247 17.0609 0.335247 16.4356 0.825071L13.9038 2.79899H7.58185C6.61534 2.79899 5.83176 3.58591 5.83176 4.5567V9.09222L0.223341 13.4683C0.213429 13.4765 0.209327 13.4877 0.20003 13.4958C0.170975 13.5232 0.144929 13.5536 0.122438 13.5867C0.100015 13.6145 0.0804631 13.6445 0.0641244 13.6763C0.0499732 13.7088 0.0388985 13.7426 0.0309 13.7771C0.0187314 13.8152 0.010733 13.8545 0.00697301 13.8943C0.00697301 13.9066 0 13.9172 0 13.9295V33.8518C0.000820354 34.2245 0.120866 34.5871 0.34243 34.8859C0.345916 34.8912 0.346531 34.8977 0.350565 34.9023C0.354666 34.907 0.363417 34.9123 0.369228 34.9188C0.696959 35.3519 1.20667 35.6072 1.74831 35.6095H33.2499C33.7937 35.6079 34.3055 35.3513 34.6336 34.9159C34.6383 34.91 34.6453 34.9082 34.6494 34.9024C34.6535 34.8966 34.654 34.8913 34.6576 34.886C34.8791 34.5871 34.9992 34.2245 35 33.8519V13.9311C34.9999 13.9188 34.9936 13.9083 34.993 13.896ZM17.149 1.74959C17.3527 1.587 17.6412 1.587 17.845 1.74959L19.1908 2.79893H15.8073L17.149 1.74959ZM1.89529 34.4378L17.1491 22.5375C17.353 22.3752 17.6412 22.3752 17.845 22.5375L33.1029 34.4378H1.89529ZM33.8333 33.5243L18.5631 21.6129C17.9377 21.1235 17.061 21.1235 16.4356 21.6129L1.1649 33.5243V14.8235L10.7245 22.2791C10.9792 22.4775 11.3458 22.4309 11.5433 22.1751C11.7408 21.9192 11.6944 21.5511 11.4397 21.3527L1.72787 13.7788L5.83183 10.5756V15.1029C5.83183 15.4265 6.09304 15.6888 6.41517 15.6888C6.73736 15.6888 6.99851 15.4264 6.99851 15.1029V4.55664C6.99851 4.23304 7.25966 3.97075 7.58185 3.97075H27.4162C27.7384 3.97075 27.9995 4.23304 27.9995 4.55664V15.1029C27.9995 15.4265 28.2607 15.6888 28.5828 15.6888C28.905 15.6888 29.1662 15.4264 29.1662 15.1029V10.5756L33.2701 13.7788L23.5414 21.3663C23.3741 21.4936 23.2877 21.7015 23.3155 21.9106C23.3432 22.1197 23.4807 22.2976 23.6755 22.3765C23.8703 22.4554 24.0922 22.4231 24.2566 22.2919L33.8331 14.8235V33.5243H33.8333Z" fill="#6BC9BD"/>
<path d="M24.4995 14.517V12.1734C24.4995 8.29039 21.3653 5.14258 17.4991 5.14258C13.6329 5.14258 10.4988 8.29039 10.4988 12.1734C10.4988 16.0564 13.6329 19.2043 17.4991 19.2043C17.8213 19.2043 18.0825 18.942 18.0825 18.6184C18.0825 18.2948 17.8213 18.0325 17.4991 18.0325C14.2773 18.0325 11.6655 15.4093 11.6655 12.1735C11.6655 8.93765 14.2773 6.31448 17.4991 6.31448C20.7209 6.31448 23.3327 8.93765 23.3327 12.1735V14.5171C23.3327 15.1643 22.8104 15.6889 22.166 15.6889C21.5216 15.6889 20.9992 15.1643 20.9992 14.5171V12.1735C20.9992 11.8499 20.7381 11.5876 20.4159 11.5876C20.0937 11.5876 19.8326 11.8499 19.8326 12.1735C19.8326 13.4678 18.7878 14.5171 17.4991 14.5171C16.2104 14.5171 15.1657 13.4678 15.1657 12.1735C15.1657 10.8792 16.2104 9.8299 17.4991 9.8299C17.8213 9.8299 18.0825 9.56761 18.0825 9.24402C18.0825 8.92042 17.8213 8.65814 17.4991 8.65814C15.9326 8.65464 14.5545 9.69697 14.1252 11.2101C13.6958 12.7233 14.3198 14.3386 15.6529 15.165C16.9859 15.9914 18.7033 15.8276 19.8577 14.7638C19.9847 16.0029 21.0569 16.9242 22.2954 16.8583C23.5339 16.7924 24.5034 15.7627 24.4995 14.517Z" fill="#6BC9BD"/>
</svg>
