<svg width="35" height="36" viewBox="0 0 35 36" fill="none" xmlns="http://www.w3.org/2000/svg">
<path d="M11.4826 24.948C12.924 27.0236 14.3631 28.8799 15.3169 30.0756C15.4557 30.2495 15.5858 30.4109 15.7118 30.5664H12.8336C12.5115 30.5664 12.2503 30.8331 12.2503 31.1621C12.2503 31.4912 12.5115 31.7579 12.8336 31.7579H22.1669C22.4891 31.7579 22.7502 31.4912 22.7502 31.1621C22.7502 30.8331 22.4891 30.5664 22.1669 30.5664H19.2888C19.4148 30.4109 19.5449 30.2495 19.6843 30.0756C20.6374 28.884 22.076 27.0236 23.518 24.948C24.9487 22.93 26.2364 20.8103 27.3715 18.6051C28.5626 16.2162 29.167 14.233 29.167 12.7103C29.171 9.54624 27.9416 6.51073 25.7504 4.2739C25.604 4.11891 25.3872 4.05664 25.1832 4.11102C24.9792 4.16541 24.8198 4.32793 24.7663 4.53619C24.7128 4.74444 24.7734 4.96596 24.925 5.11564C26.8973 7.12935 28.0038 9.86194 28.0003 12.7102C28.0003 14.0435 27.4392 15.845 26.332 18.0642C25.2226 20.2183 23.964 22.2888 22.566 24.2599C21.1439 26.3087 19.7222 28.1442 18.7802 29.3237C18.467 29.7157 18.1852 30.0624 17.9448 30.3556C17.8326 30.4864 17.6706 30.5614 17.5004 30.5614C17.3301 30.5614 17.1681 30.4863 17.0559 30.3556C16.8155 30.0625 16.5338 29.7157 16.2205 29.3237C15.2785 28.1448 13.8569 26.3092 12.4347 24.2599C11.0367 22.2888 9.77811 20.2183 8.6687 18.0642C7.56039 15.845 7.00039 14.0435 7.00039 12.7102C7.00004 8.39508 9.52689 4.49821 13.4171 2.8143C16.031 1.69491 18.9757 1.69491 21.5896 2.8143C21.7816 2.89738 22.0023 2.86966 22.1688 2.74142C22.3352 2.61324 22.422 2.40407 22.3965 2.19275C22.371 1.98142 22.2371 1.80005 22.0452 1.71697C16.1049 -0.841849 9.2581 2.00055 6.75074 8.0664C6.14268 9.5357 5.83082 11.1151 5.83376 12.7102C5.83376 14.2329 6.43813 16.2162 7.62929 18.6081C8.7642 20.8123 10.052 22.931 11.4826 24.948Z" fill="#6BC9BD"/>
<path d="M17.5003 7.33246C17.8225 7.33246 18.0836 7.06578 18.0836 6.73674C18.0836 6.40771 17.8225 6.14102 17.5003 6.14102C14.7174 6.14095 12.3219 8.14866 11.7789 10.9362C11.236 13.7237 12.6967 16.5147 15.2678 17.6024C17.8389 18.6901 20.8043 17.7714 22.3504 15.4083C23.8966 13.0452 23.5929 9.89568 21.6251 7.88595C21.4786 7.7311 21.2617 7.66897 21.0577 7.72349C20.8538 7.77802 20.6945 7.94068 20.6412 8.14894C20.5878 8.35726 20.6486 8.57871 20.8002 8.72832C22.3745 10.3361 22.6176 12.8556 21.3807 14.7461C20.1439 16.6367 17.7716 17.3717 15.7147 16.5017C13.6579 15.6317 12.4892 13.3989 12.9234 11.1688C13.3576 8.93874 15.274 7.33253 17.5003 7.33246Z" fill="#6BC9BD"/>
<path d="M34.7804 33.2897L31.1929 26.7365C30.8685 26.1542 30.2615 25.7964 29.6056 25.8005H25.4482C25.126 25.8005 24.8649 26.0672 24.8649 26.3963C24.8649 26.7253 25.126 26.992 25.4482 26.992H29.6056C29.8392 26.9874 30.057 27.1117 30.1756 27.3173L33.7619 33.8705C33.8596 34.041 33.8575 34.2524 33.7566 34.4209C33.6375 34.622 33.422 34.7424 33.192 34.7367H1.80857C1.57874 34.7423 1.36355 34.6218 1.24446 34.4209C1.14356 34.2524 1.14158 34.041 1.2392 33.8705L4.82555 27.3173C4.94388 27.1118 5.16154 26.9875 5.39485 26.992H9.55228C9.87445 26.992 10.1356 26.7253 10.1356 26.3963C10.1356 26.0672 9.87445 25.8005 9.55228 25.8005H5.39492C4.73866 25.7961 4.13122 26.154 3.80651 26.7365L0.219548 33.2897C-0.0795256 33.8292 -0.0726212 34.491 0.237663 35.0239C0.564559 35.5914 1.164 35.9365 1.80857 35.9283H33.192C33.8363 35.9363 34.4356 35.5912 34.7623 35.0239C35.0726 34.491 35.0795 33.8292 34.7804 33.2897Z" fill="#6BC9BD"/>
<path d="M28.5835 28.7793H26.2502C26.135 28.7795 26.0224 28.8143 25.9265 28.8794L24.1765 30.0709C23.9084 30.2536 23.8361 30.6235 24.0149 30.8972C24.1937 31.171 24.5559 31.2448 24.824 31.0623L26.4252 29.9709H28.5835C28.9057 29.9709 29.1668 29.7041 29.1668 29.3752C29.1668 29.046 28.9057 28.7793 28.5835 28.7793Z" fill="#6BC9BD"/>
<path d="M25.0835 32.9495C25.0835 33.2785 25.3446 33.5452 25.6668 33.5452H30.3335C30.6557 33.5452 30.9168 33.2785 30.9168 32.9495C30.9168 32.6204 30.6557 32.3537 30.3335 32.3537H25.6668C25.3446 32.3537 25.0835 32.6204 25.0835 32.9495Z" fill="#6BC9BD"/>
<path d="M10.5004 31.1623C10.7575 31.1626 10.9846 30.9909 11.0593 30.7395C11.134 30.4882 11.0387 30.2166 10.8247 30.0709L9.07474 28.8793C8.97862 28.8141 8.86576 28.7793 8.75037 28.7792H6.41705C6.09487 28.7792 5.83374 29.046 5.83374 29.375C5.83374 29.704 6.09494 29.9707 6.41705 29.9707H8.57537L10.1784 31.0621C10.2738 31.1271 10.3858 31.162 10.5004 31.1623Z" fill="#6BC9BD"/>
<path d="M4.66681 32.3537C4.34463 32.3537 4.0835 32.6204 4.0835 32.9495C4.0835 33.2785 4.34463 33.5452 4.66681 33.5452H9.33351C9.65569 33.5452 9.91683 33.2785 9.91683 32.9495C9.91683 32.6204 9.65569 32.3537 9.33351 32.3537H4.66681Z" fill="#6BC9BD"/>
</svg>
