<svg width="35" height="36" viewBox="0 0 35 36" fill="none" xmlns="http://www.w3.org/2000/svg">
<path d="M34.0816 27.2464L32.7221 26.3366C35.7881 20.9201 35.7539 14.2743 32.6322 8.89C29.5105 3.50567 23.7727 0.195756 17.5693 0.200905C17.2472 0.200905 16.9861 0.46315 16.9861 0.786699C16.9861 1.11025 17.2472 1.37249 17.5693 1.37249C23.3419 1.36817 28.6834 4.44049 31.6013 9.44346C34.519 14.4464 34.5749 20.6286 31.7481 25.684L26.9952 22.5012C26.0961 21.9042 24.8913 22.1007 24.2265 22.9529L22.1653 25.6177C21.8999 25.9687 21.4181 26.0706 21.0344 25.8568L20.6419 25.6394C19.3406 24.927 17.7216 24.0401 14.4595 20.7625C11.1974 17.4848 10.3126 15.8574 9.60332 14.5528L9.38809 14.1586C9.17204 13.7733 9.27156 13.2871 9.62137 13.0186L12.2728 10.9466C13.1211 10.2789 13.3171 9.0689 12.7231 8.16567L7.99876 1.05032C7.3899 0.130606 6.1685 -0.145506 5.22603 0.423538L2.26371 2.21085C1.33293 2.76047 0.650048 3.65059 0.358265 4.6947C-0.708462 8.59858 0.0940261 15.3361 9.97542 25.2622C14.2798 29.5855 17.9805 32.1748 21.1096 33.6394C16.2934 34.7324 11.2438 33.5625 7.39093 30.4611C3.53801 27.3597 1.30128 22.6645 1.3142 17.7052C1.3142 17.3817 1.0531 17.1194 0.730974 17.1194C0.408843 17.1194 0.147749 17.3817 0.147749 17.7052C0.156771 27.3665 7.95044 35.1972 17.5694 35.2094C19.3714 35.2101 21.1624 34.9266 22.8769 34.3694C24.4237 34.9497 26.0586 35.2576 27.7097 35.2797C28.6353 35.2837 29.5573 35.1628 30.4509 34.9201C31.4907 34.6274 32.377 33.9414 32.9239 33.0062L34.7051 30.0326C35.2725 29.0858 34.9977 27.8582 34.0816 27.2464ZM33.7025 29.4297L31.9253 32.4051C31.5324 33.0812 30.894 33.5782 30.1441 33.7917C28.4474 34.2604 26.1494 34.3189 23.1964 33.2498C23.1496 33.2235 23.0993 33.2038 23.0471 33.1913C19.7809 31.9733 15.7256 29.3776 10.7989 24.431C1.31536 14.9061 0.498244 8.60915 1.48336 5.00466C1.69634 4.2517 2.19105 3.61057 2.86388 3.21555L5.82621 1.43057C6.23514 1.18343 6.76526 1.30323 7.02943 1.70236L9.59574 5.57226L11.7497 8.81709C12.0076 9.20888 11.9229 9.73399 11.5549 10.0239L8.90288 12.0959C8.09581 12.7158 7.86534 13.8373 8.36224 14.7274L8.57282 15.1117C9.31824 16.4849 10.245 18.1931 13.6284 21.5909C17.0118 24.9886 18.712 25.9195 20.0785 26.6682L20.4617 26.8802C21.3478 27.3792 22.4645 27.1478 23.0817 26.3372L25.1446 23.6735C25.4333 23.3041 25.9559 23.219 26.3461 23.4778L33.4296 28.2229C33.8271 28.4873 33.9473 29.0188 33.7025 29.4297Z" fill="#6BC9BD"/>
</svg>
